# xmcd
#
# Track frame offsets:
#	150
#	17650
#	37122
#	55531
#	77584
#	95830
#	113419
#	135834
#	154811
#	173150
#	190178
#	203637
#	219803
#	236442
#
# Disc length: 3393 seconds
#
# Revision: 1
# Processed by: cddbd v1.5.2PL0 Copyright (c) Steve Scherf et al.
# Submitted via: audiograbber 1.83.01
#
DISCID=a50d3f0e
DTITLE=Kim Carnes - Chasin' Wild Trains
DYEAR=2005
DGENRE=Pop
TTITLE0=One Beat at a Time
TTITLE1=Just to See You Smile
TTITLE2=Where is the Boy (Chris' Song)
TTITLE3=Goodnight Angel
TTITLE4=Lucid Dreams
TTITLE5=All about Time
TTITLE6=Runaway
TTITLE7=You Made My Skin Burn
TTITLE8=Still Warmed by the Thrill
TTITLE9=If I Was an Angel
TTITLE10=Too Far Gone
TTITLE11=Stepped Right in It
TTITLE12=Bette Davis Eyes [Acoustic Version]
TTITLE13=Just to See You Smile [Acoustic Version]
EXTD=
EXTT0=
EXTT1=
EXTT2=
EXTT3=
EXTT4=
EXTT5=
EXTT6=
EXTT7=
EXTT8=
EXTT9=
EXTT10=
EXTT11=
EXTT12=
EXTT13=
PLAYORDER=
